# xmcd
#
# Track frame offsets:
# 150
# 83898
# 116763
# 202473
# 204088
# 264963
# 314818
#
# Disc length: 4224 seconds
#
# Revision: 1
# Processed by: cddbd v1.5.1PL2 Copyright (c) Steve Scherf et al.
# Submitted via: Axialis_AX_CDPlayer 2.6
#
DISCID=66107e07
DTITLE=Jackie McLean - Montmarte Summit 1973 [CD2 of 2)
DYEAR=1973
DGENRE=Jazz
TTITLE0=Half Nelson
TTITLE1=I Can't Get Started
TTITLE2=On the Trail [#]
TTITLE3=Closing [#]
TTITLE4=Another Hair-Do
TTITLE5=Dexter Digs In
TTITLE6=Closing
EXTD=with Dexter Gordon (Also released as a solo disc "The Source" ) YEAR: 
EXTD=\n1973
EXTT0=
EXTT1=
EXTT2=
EXTT3=
EXTT4=
EXTT5=
EXTT6=
PLAYORDER=
